# xmcd
#
# Track frame offsets: 
#        150
#        15415
#        30695
#        45031
#        61770
#        77392
#        94568
#        112964
#        130131
#        145884
#        161882
#        177972
#
# Disc length: 2582 seconds
#
# Revision: 0
# Processed by: cddbd v1.5.2PL0 Copyright (c) Steve Scherf et al.
# Submitted via: ExactAudioCopy v0.95b4
#
DISCID=840a140c
DTITLE=Mike Scott - Mountain Valley Traditions
DYEAR=1900
DGENRE=Bluegrass
TTITLE0=Old Spinning Wheel
TTITLE1=Bill Cheatham
TTITLE2=Banks Of The Ohio
TTITLE3=She'll Be Coming Around The Mountain
TTITLE4=Golden Slippers
TTITLE5=Knoxville Girl
TTITLE6=Wreck Of The Old 97
TTITLE7=Bonaparte's Retreat
TTITLE8=Buffalo Gals
TTITLE9=Old Joe Clark
TTITLE10=Cindy
TTITLE11=Angeline The Baker
EXTD=
EXTT0=
EXTT1=
EXTT2=
EXTT3=
EXTT4=
EXTT5=
EXTT6=
EXTT7=
EXTT8=
EXTT9=
EXTT10=
EXTT11=
PLAYORDER=
